<?xml version="1.0" standalone="no"?>
<!DOCTYPE svg PUBLIC "-//W3C//DTD SVG 20010904//EN"
 "http://www.w3.org/TR/2001/REC-SVG-20010904/DTD/svg10.dtd">
<svg version="1.0" xmlns="http://www.w3.org/2000/svg"
 width="556.000000pt" height="449.000000pt" viewBox="0 0 556.000000 449.000000"
 preserveAspectRatio="xMidYMid meet">

<g transform="translate(0.000000,449.000000) scale(0.100000,-0.100000)"
fill="#000000" stroke="none">
<path d="M2909 4382 c-606 -374 -990 -856 -1119 -1407 -79 -336 -66 -763 36
-1140 50 -186 122 -293 348 -519 147 -148 246 -230 388 -323 546 -359 1156
-396 1833 -110 141 59 312 147 445 228 l95 58 -2 42 c-3 52 -13 62 -83 78
-785 181 -1389 484 -1731 868 -257 288 -379 615 -379 1017 0 337 72 650 245
1066 69 164 73 190 34 198 -8 1 -57 -24 -110 -56z m-42 -234 c-215 -560 -260
-1023 -142 -1439 195 -683 862 -1175 1983 -1462 73 -19 134 -36 137 -39 8 -8
-270 -162 -401 -222 -161 -73 -390 -149 -549 -182 -117 -25 -152 -27 -350 -28
-195 -1 -232 2 -329 23 -303 64 -573 202 -832 424 -173 148 -391 392 -444 497
-37 74 -93 337 -115 540 -87 801 244 1459 993 1972 53 36 98 65 100 63 2 -2
-21 -68 -51 -147z"/>
<path d="M426 4117 c-17 -12 -18 -26 -14 -151 4 -114 2 -136 -9 -132 -8 3 -57
35 -108 72 -103 71 -138 79 -143 34 -3 -23 10 -35 98 -95 55 -38 100 -71 100
-74 0 -3 -52 -5 -115 -3 -120 3 -155 -5 -155 -36 0 -36 20 -42 152 -42 70 0
128 -3 128 -6 0 -3 -34 -46 -75 -97 -76 -92 -84 -111 -54 -130 26 -16 43 -3
111 82 34 44 66 80 71 80 4 1 7 -35 7 -78 0 -80 12 -111 44 -111 29 0 37 29
36 127 -1 54 -1 102 -1 106 1 5 22 -7 49 -26 129 -93 153 -107 173 -97 37 20
23 52 -41 95 -33 22 -60 43 -60 48 0 4 54 7 120 7 109 0 120 2 130 20 8 15 6
24 -10 40 -18 18 -33 20 -177 20 l-157 0 25 28 c14 15 49 57 78 94 58 75 62
108 13 107 -21 0 -40 -16 -87 -76 l-60 -75 -7 132 c-4 94 -10 135 -20 141 -18
12 -21 11 -42 -4z"/>
<path d="M4990 3710 c-12 -7 -16 -43 -20 -180 l-5 -170 -98 115 c-54 63 -104
115 -112 115 -23 0 -45 -29 -37 -48 4 -10 52 -71 107 -136 55 -65 102 -122
103 -127 2 -5 -77 -9 -191 -9 -208 0 -226 -4 -212 -49 9 -30 30 -32 223 -29
94 2 172 1 172 -2 0 -4 -31 -32 -70 -64 -87 -73 -93 -80 -85 -106 12 -37 52
-25 125 40 37 33 70 60 74 60 3 0 6 -51 6 -112 0 -131 5 -155 32 -163 41 -14
48 9 48 151 0 74 3 134 8 133 4 0 54 -56 112 -125 88 -105 109 -124 130 -122
18 2 26 10 28 28 2 19 -21 52 -102 145 -58 66 -105 126 -106 133 0 9 46 12
195 12 172 0 196 2 202 16 3 9 2 24 -4 33 -9 13 -39 17 -192 21 l-181 5 80 69
c44 37 80 74 80 81 0 15 -27 45 -40 45 -5 0 -54 -39 -110 -86 l-100 -85 0 200
c0 188 -1 201 -19 211 -24 12 -22 12 -41 0z"/>
<path d="M1565 674 c-11 -12 -15 -39 -15 -117 l0 -101 -74 73 c-57 56 -79 72
-97 69 -16 -2 -25 -11 -27 -27 -3 -18 13 -40 68 -96 l71 -72 -77 -6 c-42 -4
-94 -7 -115 -7 -29 0 -39 -5 -44 -20 -13 -41 10 -50 124 -50 l106 -1 -40 -32
c-76 -61 -87 -75 -75 -97 17 -31 47 -24 109 25 31 25 60 45 64 45 4 0 7 -38 7
-84 0 -64 4 -88 16 -100 19 -20 29 -20 48 0 12 12 16 37 16 102 l0 86 69 -68
c52 -52 74 -67 92 -64 16 2 25 11 27 27 3 18 -12 40 -64 92 l-68 68 138 3
c120 3 140 5 150 21 8 12 8 22 0 35 -9 14 -30 17 -134 20 l-122 3 76 60 c76
60 86 75 64 97 -22 22 -46 12 -137 -58 l-91 -71 0 106 c0 59 -4 114 -10 124
-14 26 -37 33 -55 15z"/>
</g>
</svg>
