<?xml version="1.0" standalone="no"?>
<!DOCTYPE svg PUBLIC "-//W3C//DTD SVG 20010904//EN"
 "http://www.w3.org/TR/2001/REC-SVG-20010904/DTD/svg10.dtd">
<svg version="1.0" xmlns="http://www.w3.org/2000/svg"
 width="519.000000pt" height="480.000000pt" viewBox="0 0 519.000000 480.000000"
 preserveAspectRatio="xMidYMid meet">

<g transform="translate(0.000000,480.000000) scale(0.100000,-0.100000)"
fill="#000000" stroke="none">
<path d="M2634 4326 c-250 -142 -405 -256 -570 -421 -313 -312 -483 -667 -529
-1103 -19 -175 -19 -280 0 -478 38 -395 140 -626 367 -829 326 -291 664 -492
983 -586 214 -62 497 -78 713 -38 291 53 574 189 860 412 56 44 101 85 99 91
-2 6 -39 16 -83 23 -448 65 -912 271 -1295 575 -289 228 -531 597 -620 941
-103 401 -43 877 171 1357 27 60 46 111 42 114 -11 12 -29 4 -138 -58z m36
-110 c-128 -301 -190 -592 -190 -887 0 -228 24 -376 91 -567 100 -283 327
-608 554 -791 386 -313 793 -503 1277 -597 50 -9 85 -21 82 -26 -4 -5 -50 -43
-104 -83 -244 -181 -499 -302 -756 -357 -94 -20 -136 -23 -304 -22 -173 0
-208 3 -310 26 -361 83 -723 285 -1075 601 -225 201 -308 375 -359 752 -53
384 -10 740 128 1059 161 375 465 696 896 944 58 33 106 57 108 52 2 -5 -15
-52 -38 -104z"/>
<path d="M2287 3946 c-311 -233 -485 -532 -542 -931 -20 -139 -18 -450 3 -450
11 0 14 43 16 205 2 178 6 222 29 332 32 152 63 242 128 368 88 171 238 345
392 453 53 38 73 67 45 67 -7 0 -39 -20 -71 -44z"/>
<path d="M307 4093 c-4 -3 -7 -71 -7 -150 0 -78 -2 -143 -4 -143 -3 0 -53 34
-112 75 -102 72 -140 90 -132 63 3 -7 50 -44 106 -83 56 -38 101 -73 102 -77
0 -5 -40 -8 -90 -8 -73 0 -90 -3 -90 -15 0 -12 18 -15 105 -15 62 0 105 -4
105 -10 0 -5 -25 -42 -55 -81 -41 -53 -53 -75 -45 -83 12 -11 22 -2 82 75 l27
34 1 -63 c0 -55 2 -63 18 -60 14 3 17 16 20 86 2 45 4 82 7 82 2 0 51 -34 110
-75 98 -68 125 -80 125 -55 0 5 -40 37 -90 71 -49 34 -90 66 -90 71 0 4 36 8
80 8 64 0 80 3 80 15 0 12 -17 15 -91 15 -53 0 -89 4 -87 10 2 5 34 48 71 95
61 76 74 105 47 105 -5 0 -42 -43 -82 -95 l-73 -95 -2 133 c-3 165 -10 197
-36 170z"/>
<path d="M4640 3522 c0 -98 -3 -181 -6 -185 -4 -3 -54 50 -112 119 -95 112
-127 139 -127 107 0 -6 51 -71 113 -144 l113 -134 -205 -3 c-174 -2 -206 -5
-206 -17 0 -13 30 -15 198 -15 109 0 201 -3 205 -6 3 -3 -33 -40 -81 -81 -84
-71 -108 -103 -80 -103 7 0 50 32 95 70 45 39 84 70 87 70 3 0 6 -66 6 -146 0
-112 3 -145 13 -142 8 3 13 48 17 158 l5 154 101 -120 c138 -162 144 -168 157
-155 12 12 20 0 -120 165 -57 65 -103 123 -103 128 0 4 93 8 206 8 160 0 205
3 202 13 -4 9 -56 13 -198 17 l-193 5 92 78 c82 71 101 97 69 97 -6 0 -54 -38
-108 -85 -54 -47 -100 -85 -104 -85 -3 0 -6 92 -6 205 0 176 -2 205 -15 205
-13 0 -15 -26 -15 -178z"/>
<path d="M1387 823 c-4 -3 -7 -58 -7 -122 l0 -116 -83 83 c-45 45 -88 82 -95
82 -27 0 -8 -29 67 -105 44 -43 78 -82 75 -87 -3 -4 -50 -8 -105 -8 -76 0
-100 -3 -97 -12 3 -9 37 -15 104 -18 l99 -5 -53 -38 c-48 -35 -67 -67 -42 -67
6 0 35 18 64 40 29 22 56 40 59 40 4 0 7 -47 7 -105 0 -87 3 -105 15 -105 12
0 15 18 15 105 0 58 4 105 8 105 4 0 32 -25 62 -55 30 -30 60 -55 67 -55 26 0
12 27 -42 80 l-56 55 102 5 c69 3 104 9 107 18 3 9 -20 12 -92 12 -52 0 -97 4
-100 8 -3 5 13 22 34 38 38 28 52 54 29 54 -6 0 -33 -16 -59 -35 -26 -19 -50
-35 -54 -35 -3 0 -6 56 -6 125 0 114 -5 137 -23 118z"/>
</g>
</svg>
