<?xml version="1.0" standalone="no"?>
<!DOCTYPE svg PUBLIC "-//W3C//DTD SVG 20010904//EN"
 "http://www.w3.org/TR/2001/REC-SVG-20010904/DTD/svg10.dtd">
<svg version="1.0" xmlns="http://www.w3.org/2000/svg"
 width="508.000000pt" height="491.000000pt" viewBox="0 0 508.000000 491.000000"
 preserveAspectRatio="xMidYMid meet">

<g transform="translate(0.000000,491.000000) scale(0.100000,-0.100000)"
fill="#000000" stroke="none">
<path d="M2566 4857 c-15 -11 -16 -57 -14 -507 l3 -495 30 0 30 0 3 497 c2
477 1 498 -17 507 -13 7 -23 7 -35 -2z"/>
<path d="M3741 4506 c-6 -8 -49 -83 -95 -167 -45 -85 -147 -272 -225 -417
-150 -276 -159 -302 -102 -302 26 0 36 16 151 228 68 125 165 304 216 397 128
236 130 241 114 260 -16 19 -44 20 -59 1z"/>
<path d="M3063 4418 c-15 -19 -125 -543 -121 -575 3 -24 8 -28 33 -28 l30 0
31 140 c79 357 95 446 83 461 -14 17 -43 18 -56 2z"/>
<path d="M2037 4383 c-4 -3 -7 -16 -7 -28 0 -23 142 -532 160 -573 13 -31 63
-28 68 4 3 19 -136 529 -158 582 -9 21 -48 31 -63 15z"/>
<path d="M1305 4356 c-16 -11 -18 -19 -10 -39 14 -35 546 -695 566 -702 26 -9
49 5 49 30 0 15 -55 91 -152 211 -83 104 -205 257 -271 339 -115 143 -143 175
-157 175 -3 0 -15 -6 -25 -14z"/>
<path d="M3874 3788 c-72 -73 -145 -153 -164 -178 -19 -25 -53 -66 -77 -92
-24 -26 -43 -56 -43 -66 0 -26 25 -45 47 -37 25 9 407 433 411 457 4 21 -14
48 -32 48 -7 0 -71 -60 -142 -132z"/>
<path d="M1174 3764 c-8 -30 -23 -15 201 -205 189 -161 224 -189 236 -189 12
0 39 30 39 45 0 7 -95 94 -211 194 -221 190 -252 208 -265 155z"/>
<path d="M2418 3720 c-527 -84 -932 -469 -1038 -989 -29 -146 -28 -344 4 -495
90 -423 387 -763 796 -911 142 -51 250 -68 420 -68 168 0 265 17 411 69 399
143 690 468 791 883 29 120 36 361 14 487 -87 503 -442 879 -946 1004 -97 24
-354 35 -452 20z m464 -103 c212 -56 376 -151 533 -311 175 -176 269 -351 321
-596 24 -114 24 -314 0 -433 -98 -489 -476 -853 -966 -932 -433 -69 -883 126
-1130 490 -238 351 -271 785 -90 1160 62 127 116 203 224 311 175 176 350 272
594 325 130 28 380 22 514 -14z"/>
<path d="M2466 3399 c-149 -22 -255 -62 -386 -148 -148 -96 -249 -214 -317
-372 -36 -82 -113 -368 -113 -417 0 -22 6 -32 21 -37 33 -11 46 11 78 135 36
141 87 269 149 375 56 96 190 234 275 284 110 65 280 111 407 111 46 0 68 26
50 60 -12 22 -56 25 -164 9z"/>
<path d="M555 3677 c-10 -8 -15 -23 -13 -36 2 -18 36 -44 143 -109 203 -124
645 -392 682 -414 25 -15 36 -17 52 -8 26 13 27 42 4 62 -16 14 -774 477 -829
506 -16 8 -26 8 -39 -1z"/>
<path d="M4450 3552 c-102 -59 -287 -168 -412 -241 -124 -73 -229 -139 -232
-147 -8 -20 3 -42 24 -49 13 -4 144 68 422 230 222 130 412 245 423 256 15 15
17 23 9 37 -6 9 -20 18 -30 20 -11 1 -102 -46 -204 -106z"/>
<path d="M4256 2940 c-159 -43 -293 -83 -298 -88 -14 -14 -6 -43 14 -55 23
-15 606 141 622 166 14 22 -3 51 -30 54 -10 1 -149 -34 -308 -77z"/>
<path d="M621 2961 c-21 -38 6 -50 294 -127 154 -42 300 -76 325 -77 42 -2 45
0 48 25 3 21 -2 30 -20 37 -40 16 -594 161 -616 161 -12 0 -26 -8 -31 -19z"/>
<path d="M3978 2485 c-8 -19 -8 -28 2 -40 11 -13 72 -15 503 -13 454 3 491 4
501 21 8 12 8 22 0 35 -10 16 -47 17 -503 20 l-491 2 -12 -25z"/>
<path d="M204 2466 c-3 -8 -4 -23 -2 -33 3 -17 32 -19 493 -26 535 -10 549 -9
543 41 l-3 27 -513 3 c-440 2 -513 0 -518 -12z"/>
<path d="M3921 2111 c-22 -40 3 -50 333 -132 336 -84 346 -85 346 -33 0 20 -8
26 -57 40 -32 9 -98 29 -148 46 -78 26 -409 98 -450 98 -8 0 -19 -8 -24 -19z"/>
<path d="M980 2055 c-146 -30 -279 -54 -295 -54 -59 -1 -96 -51 -60 -81 12
-10 52 -5 207 25 418 82 451 89 462 108 14 22 -3 51 -30 54 -10 0 -138 -23
-284 -52z"/>
<path d="M930 1532 c-423 -231 -435 -238 -435 -267 0 -23 5 -31 22 -33 14 -2
167 75 420 214 446 243 473 259 473 278 0 15 -26 46 -38 46 -4 0 -203 -107
-442 -238z"/>
<path d="M3825 1739 c-5 -14 -1 -27 11 -39 16 -14 200 -122 731 -427 49 -29
83 -24 83 11 0 13 -8 30 -17 38 -10 8 -126 77 -258 153 -132 76 -297 171 -367
212 -134 77 -172 88 -183 52z"/>
<path d="M1372 1287 c-234 -234 -259 -267 -212 -282 10 -3 27 -2 37 4 28 15
463 456 463 468 0 6 -3 18 -6 27 -16 41 -51 14 -282 -217z"/>
<path d="M3580 1500 c-7 -13 -7 -26 -1 -37 18 -33 447 -453 462 -453 19 0 39
20 39 40 0 21 -451 470 -472 470 -10 0 -22 -9 -28 -20z"/>
<path d="M1874 1283 c-8 -6 -444 -749 -493 -841 -17 -31 -5 -62 23 -62 13 0
29 7 36 15 7 9 120 201 252 427 244 421 262 459 213 466 -11 1 -25 -1 -31 -5z"/>
<path d="M3292 1248 c-7 -7 -12 -20 -12 -30 0 -10 59 -121 131 -246 72 -125
178 -309 236 -409 90 -157 108 -183 128 -183 14 0 29 9 35 19 8 17 -6 48 -83
183 -401 699 -389 678 -412 678 -6 0 -16 -5 -23 -12z"/>
<path d="M2231 1158 c-6 -13 -27 -84 -47 -158 -20 -74 -49 -180 -65 -235 -74
-265 -82 -304 -69 -320 17 -21 47 -19 59 4 19 35 192 681 189 703 -5 34 -54
38 -67 6z"/>
<path d="M2951 1106 c-8 -10 -4 -44 19 -142 16 -71 49 -216 74 -323 47 -209
58 -229 101 -197 18 13 18 18 -18 177 -73 328 -109 484 -114 491 -7 13 -50 9
-62 -6z"/>
<path d="M2567 1063 c-4 -3 -7 -230 -7 -503 0 -372 3 -499 12 -508 18 -18 46
-14 58 7 15 30 14 983 -2 999 -13 13 -50 16 -61 5z"/>
</g>
</svg>
