<?xml version="1.0" standalone="no"?>
<!DOCTYPE svg PUBLIC "-//W3C//DTD SVG 20010904//EN"
 "http://www.w3.org/TR/2001/REC-SVG-20010904/DTD/svg10.dtd">
<svg version="1.0" xmlns="http://www.w3.org/2000/svg"
 width="501.000000pt" height="498.000000pt" viewBox="0 0 501.000000 498.000000"
 preserveAspectRatio="xMidYMid meet">

<g transform="translate(0.000000,498.000000) scale(0.100000,-0.100000)"
fill="#000000" stroke="none">
<path d="M2515 4868 c-3 -7 -4 -227 -3 -488 3 -414 5 -475 18 -475 13 0 15 60
15 484 0 379 -3 485 -12 488 -7 3 -15 -1 -18 -9z"/>
<path d="M1326 4542 c-8 -14 532 -912 549 -912 8 0 15 6 15 13 -1 18 -533 900
-547 904 -6 2 -14 0 -17 -5z"/>
<path d="M3585 4307 c-65 -122 -165 -307 -222 -410 -109 -202 -119 -222 -105
-231 16 -10 35 21 192 314 85 157 184 341 221 409 38 68 66 128 63 133 -15 24
-39 -11 -149 -215z"/>
<path d="M3020 4436 c0 -6 -36 -177 -79 -376 -27 -120 -37 -188 -31 -194 18
-18 28 6 55 134 97 459 94 440 70 440 -8 0 -15 -2 -15 -4z"/>
<path d="M1995 4368 c4 -18 41 -149 81 -291 41 -142 74 -260 74 -262 0 -3 7
-5 15 -5 8 0 15 8 15 18 0 9 -35 141 -79 292 -61 215 -82 276 -96 278 -14 3
-16 -1 -10 -30z"/>
<path d="M1100 3906 c0 -26 121 -179 214 -271 90 -90 233 -205 254 -205 32 0
13 25 -65 86 -114 89 -242 219 -318 322 -57 77 -85 100 -85 68z"/>
<path d="M3858 3845 c-125 -107 -298 -321 -298 -369 0 -36 28 -11 85 75 62 93
205 247 288 309 25 19 47 41 47 48 0 28 -40 7 -122 -63z"/>
<path d="M2395 3739 c-453 -61 -834 -359 -992 -774 -65 -170 -77 -242 -77
-445 0 -176 2 -191 33 -305 123 -459 473 -792 941 -896 110 -24 364 -26 472
-4 246 51 437 149 611 315 203 191 327 423 373 694 32 193 9 434 -61 626 -143
392 -487 686 -899 771 -116 24 -299 32 -401 18z m325 -39 c171 -25 400 -120
535 -222 278 -211 447 -513 475 -848 31 -380 -100 -720 -377 -980 -475 -444
-1220 -421 -1670 53 -213 225 -326 508 -326 817 0 245 61 449 199 663 57 88
189 225 289 300 139 103 352 192 520 216 83 12 277 13 355 1z"/>
<path d="M2375 3399 c-125 -17 -291 -78 -382 -140 -197 -135 -322 -350 -368
-632 -19 -119 -19 -157 0 -157 8 0 15 1 15 3 0 39 27 195 46 267 105 389 366
597 797 636 55 5 77 11 77 20 0 16 -83 17 -185 3z"/>
<path d="M495 3679 c-9 -13 -28 1 180 -126 558 -341 665 -404 675 -398 21 13
8 25 -87 83 -187 113 -559 339 -651 395 -98 60 -107 63 -117 46z"/>
<path d="M4230 3455 c-201 -118 -384 -225 -407 -239 -38 -23 -58 -56 -34 -56
20 0 832 483 828 493 -2 6 -7 12 -13 14 -5 1 -173 -94 -374 -212z"/>
<path d="M4400 2995 c-119 -33 -345 -93 -409 -111 -30 -7 -59 -18 -64 -23 -13
-13 2 -34 19 -27 11 4 387 105 547 147 41 11 52 40 15 38 -13 -1 -61 -12 -108
-24z"/>
<path d="M575 2980 c-4 -7 -3 -15 1 -20 8 -7 147 -45 529 -146 84 -21 116 -20
101 4 -3 5 -16 12 -28 15 -13 2 -66 16 -118 30 -52 14 -174 46 -270 72 -96 25
-182 48 -192 51 -9 3 -19 0 -23 -6z"/>
<path d="M3947 2504 c-4 -4 -4 -11 -1 -15 3 -5 223 -9 490 -9 424 0 484 2 484
15 0 13 -60 15 -483 15 -266 0 -487 -3 -490 -6z"/>
<path d="M161 2481 c-43 -28 9 -31 494 -31 485 0 537 3 494 31 -18 11 -970 11
-988 0z"/>
<path d="M3890 2117 c0 -12 15 -17 68 -21 182 -17 348 -57 480 -116 73 -34 92
-37 92 -15 0 16 -58 44 -180 87 -114 39 -255 68 -367 75 -80 5 -93 4 -93 -10z"/>
<path d="M1015 2075 c-464 -93 -445 -89 -445 -107 0 -14 6 -16 33 -11 17 4
163 32 322 63 222 42 290 59 290 70 0 23 -17 21 -200 -15z"/>
<path d="M873 1532 c-238 -130 -433 -243 -433 -249 0 -7 7 -13 16 -13 9 0 191
95 403 212 212 116 404 221 426 233 38 20 52 45 30 51 -5 1 -205 -104 -442
-234z"/>
<path d="M3792 1748 c5 -13 12 -18 258 -160 519 -301 540 -312 540 -278 0 12
-763 450 -784 450 -10 0 -16 -6 -14 -12z"/>
<path d="M1327 1292 c-125 -125 -227 -233 -227 -240 0 -6 6 -12 13 -12 16 0
467 451 467 468 0 6 -6 12 -13 12 -7 0 -115 -102 -240 -228z"/>
<path d="M3544 1509 c-4 -7 86 -104 219 -237 181 -181 229 -224 239 -214 10
10 -33 58 -212 237 -124 124 -228 225 -232 225 -4 0 -10 -5 -14 -11z"/>
<path d="M1822 1278 c-5 -7 -92 -155 -193 -328 -315 -544 -303 -520 -290 -533
7 -7 14 -7 20 -2 7 9 221 374 433 741 55 96 69 134 49 134 -5 0 -13 -6 -19
-12z"/>
<path d="M3250 1239 c0 -6 5 -20 11 -32 38 -73 444 -775 455 -786 26 -28 27
16 2 61 -402 703 -468 810 -468 757z"/>
<path d="M2121 913 c-40 -148 -84 -304 -97 -347 -13 -43 -21 -83 -18 -88 15
-24 33 -2 49 60 9 37 28 103 40 147 67 236 125 454 125 473 0 12 -6 22 -13 22
-9 0 -38 -91 -86 -267z"/>
<path d="M2916 1112 c-7 -12 132 -624 145 -636 21 -22 28 10 15 64 -7 30 -25
109 -40 175 -86 383 -100 429 -120 397z"/>
<path d="M2530 1068 c0 -2 0 -223 0 -493 -1 -434 1 -490 15 -493 13 -3 15 51
15 492 0 434 -2 496 -15 496 -8 0 -15 -1 -15 -2z"/>
</g>
</svg>
